HIERARCHY
ROOT Hips
{
	OFFSET 0.000000 0.000000 0.000000
	CHANNELS 6 Xposition Yposition Zposition Zrotation Yrotation Xrotation 
	JOINT LHipJoint
	{
		OFFSET 0.000000 0.000000 0.000000
		CHANNELS 3 Zrotation Yrotation Xrotation
		JOINT LeftUpLeg
		{
			OFFSET 1.363060 -1.794630 0.839290
			CHANNELS 3 Zrotation Yrotation Xrotation
			JOINT LeftLeg
			{
				OFFSET 2.448110 -6.726130 0.000000
				CHANNELS 3 Zrotation Yrotation Xrotation
				JOINT LeftFoot
				{
					OFFSET 2.562200 -7.039590 0.000000
					CHANNELS 3 Zrotation Yrotation Xrotation
					JOINT LeftToeBase
					{
						OFFSET 0.157640 -0.433110 2.322550
						CHANNELS 3 Zrotation Yrotation Xrotation
						End Site
						{
							OFFSET 0.000000 0.000000 0.000000
						}
					}
				}
			}
		}
	}
	JOINT RHipJoint
	{
		OFFSET 0.000000 0.000000 0.000000
		CHANNELS 3 Zrotation Yrotation Xrotation
		JOINT RightUpLeg
		{
			OFFSET -1.305520 -1.794630 0.839290
			CHANNELS 3 Zrotation Yrotation Xrotation
			JOINT RightLeg
			{
				OFFSET -2.542530 -6.985550 0.000000
				CHANNELS 3 Zrotation Yrotation Xrotation
				JOINT RightFoot
				{
					OFFSET -2.568260 -7.056230 0.000000
					CHANNELS 3 Zrotation Yrotation Xrotation
					JOINT RightToeBase
					{
						OFFSET -0.164730 -0.452590 2.363150
						CHANNELS 3 Zrotation Yrotation Xrotation
						End Site
						{
							OFFSET 0.000000 0.000000 0.000000
						}
					}
				}
			}
		}
	}
	JOINT LowerBack
	{
		OFFSET 0.000000 0.000000 0.000000
		CHANNELS 3 Zrotation Yrotation Xrotation
		JOINT Spine
		{
			OFFSET 0.028270 2.035590 -0.193380
			CHANNELS 3 Zrotation Yrotation Xrotation
			JOINT Spine1
			{
				OFFSET 0.056720 2.048850 -0.042750
				CHANNELS 3 Zrotation Yrotation Xrotation
				JOINT Neck
				{
					OFFSET 0.000000 0.000000 0.000000
					CHANNELS 3 Zrotation Yrotation Xrotation
					JOINT Neck1
					{
						OFFSET -0.054170 1.746240 0.172020
						CHANNELS 3 Zrotation Yrotation Xrotation
						JOINT Head
						{
							OFFSET 0.104070 1.761360 -0.123970
							CHANNELS 3 Zrotation Yrotation Xrotation
							End Site
							{
								OFFSET 0.000000 0.000000 0.000000
							}
						}
					}
				}
				JOINT LeftShoulder
				{
					OFFSET 0.000000 0.000000 0.000000
					CHANNELS 3 Zrotation Yrotation Xrotation
					JOINT LeftArm
					{
						OFFSET 3.362410 1.200890 -0.311210
						CHANNELS 3 Zrotation Yrotation Xrotation
						JOINT LeftForeArm
						{
							OFFSET 4.983000 -0.000000 -0.000000
							CHANNELS 3 Zrotation Yrotation Xrotation
							JOINT LeftHand
							{
								OFFSET 3.483560 -0.000000 -0.000000
								CHANNELS 3 Zrotation Yrotation Xrotation
								JOINT LeftFingerBase
								{
									OFFSET 0.000000 0.000000 0.000000
									CHANNELS 3 Zrotation Yrotation Xrotation
									JOINT LeftHandIndex1
									{
										OFFSET 0.715260 -0.000000 -0.000000
										CHANNELS 3 Zrotation Yrotation Xrotation
										End Site
										{
											OFFSET 0.000000 0.000000 0.000000
										}
									}
								}
								JOINT LThumb
								{
									OFFSET 0.000000 0.000000 0.000000
									CHANNELS 3 Zrotation Yrotation Xrotation
									End Site
									{
										OFFSET 0.000000 0.000000 0.000000
									}
								}
							}
						}
					}
				}
				JOINT RightShoulder
				{
					OFFSET 0.000000 0.000000 0.000000
					CHANNELS 3 Zrotation Yrotation Xrotation
					JOINT RightArm
					{
						OFFSET -3.136600 1.374050 -0.404650
						CHANNELS 3 Zrotation Yrotation Xrotation
						JOINT RightForeArm
						{
							OFFSET -5.241900 -0.000000 -0.000000
							CHANNELS 3 Zrotation Yrotation Xrotation
							JOINT RightHand
							{
								OFFSET -3.444170 -0.000000 -0.000000
								CHANNELS 3 Zrotation Yrotation Xrotation
								JOINT RightFingerBase
								{
									OFFSET 0.000000 0.000000 0.000000
									CHANNELS 3 Zrotation Yrotation Xrotation
									JOINT RightHandIndex1
									{
										OFFSET -0.622530 -0.000000 -0.000000
										CHANNELS 3 Zrotation Yrotation Xrotation
										End Site
										{
											OFFSET 0.000000 0.000000 0.000000
										}
									}
								}
								JOINT RThumb
								{
									OFFSET 0.000000 0.000000 0.000000
									CHANNELS 3 Zrotation Yrotation Xrotation
									End Site
									{
										OFFSET 0.000000 0.000000 0.000000
									}
								}
							}
						}
					}
				}
			}
		}
	}
}
MOTION
Frames: 12
Frame Time: 0.008333
-2.253834 16.524769 -0.853606 -153.631964 71.935368 -149.588535 -10.902267 0.741474 0.409527 -22.547911 10.927015 -31.044980 -2.537104 -0.778125 13.349724 3.624927 15.057307 -19.713054 176.815800 -0.000000 -6.386800 9.243721 -2.724682 -4.167782 -1.720051 -23.502482 -7.204807 -0.309920 -2.709328 42.801419 -1.316968 -3.743448 23.058759 -1.394300 -0.000000 -87.615200 4.327168 0.524455 2.472964 -0.231049 0.314269 -2.775212 -7.125652 0.270085 -0.285829 9.400384 -2.950526 -5.438614 -3.912282 -0.320737 0.562782 0.000000 0.000000 0.000000 -6.683353 9.198029 2.363173 -70.194048 16.444510 7.126676 -3.486551 -12.149183 -0.011337 -1.149389 9.164438 -0.088005 -0.061416 -0.057968 -0.000000 0.000000 0.000000 0.000000 0.000000 0.000000 0.000000 15.817671 2.222129 0.615660 56.611389 19.649838 11.127988 1.773070 48.259814 -0.001633 -3.492834 6.830001 -0.219765 0.085399 -0.225631 -0.000000 0.000000 0.000000 0.000000 0.000000 0.000000 0.000000 
-2.061806 16.496659 -0.953581 -154.597705 71.171571 -150.603783 -10.878022 0.855562 0.398832 -22.654427 10.770826 -30.552820 -2.527224 -0.661727 14.454126 3.579110 14.957885 -19.621090 176.849500 0.000000 -8.231000 9.418276 -2.579175 -4.023539 -1.797114 -22.891558 -8.878789 -0.532068 -2.809853 46.381586 -1.577320 -4.687952 25.172324 -1.873000 -0.000000 -83.876400 4.214968 0.444987 2.273053 -0.258217 0.232488 -2.802195 -7.181294 0.188242 -0.234602 9.561535 -3.100100 -5.501024 -3.933859 -0.321942 0.547088 0.000000 0.000000 0.000000 -6.586329 9.270154 2.296939 -69.681642 16.292261 7.956343 -3.502273 -13.195293 -0.012284 -1.612157 9.297473 -0.127001 -0.063375 -0.059286 -0.000000 0.000000 0.000000 0.000000 0.000000 0.000000 0.000000 16.124967 1.998913 0.645144 56.510893 18.856397 11.284865 1.847569 47.588670 0.000039 -3.199606 6.885698 -0.202964 0.084932 -0.216607 -0.000000 0.000000 0.000000 0.000000 0.000000 0.000000 0.000000 
-1.873130 16.470929 -1.051667 -155.786018 70.319489 -151.679499 -10.822588 0.970412 0.438672 -22.851394 10.378564 -30.229763 -2.526909 -0.555501 15.576173 3.539955 14.791893 -19.637819 176.865300 0.000000 -9.967900 9.579041 -2.428000 -3.834074 -1.709395 -22.061544 -10.782166 -0.704142 -2.907240 49.830143 -1.803248 -5.666805 26.648489 -2.404800 -0.000000 -79.668000 4.053651 0.337155 1.985785 -0.292779 0.120543 -2.843758 -7.235816 0.075550 -0.178651 9.716208 -3.257475 -5.585844 -3.955999 -0.323040 0.525892 0.000000 0.000000 0.000000 -6.536290 9.340900 2.235228 -69.064928 16.021920 8.863305 -3.515692 -14.346580 -0.013142 -2.067144 9.357647 -0.165191 -0.065340 -0.060066 -0.000000 0.000000 0.000000 0.000000 0.000000 0.000000 0.000000 16.428344 1.755473 0.674205 56.485224 18.042574 11.380089 1.927648 46.815175 0.001650 -2.923191 6.973116 -0.187863 0.084848 -0.207666 -0.000000 0.000000 0.000000 0.000000 0.000000 0.000000 0.000000 
-1.688989 16.448325 -1.147900 -157.153632 69.369195 -152.780241 -10.743387 1.077321 0.530683 -23.104584 9.701950 -30.028367 -2.526872 -0.459424 16.702977 3.517426 14.616391 -19.775301 176.851200 -0.000000 -11.563300 9.721919 -2.274606 -3.612439 -1.485938 -21.031635 -12.875980 -0.845648 -3.011402 53.100461 -1.982837 -6.599292 27.417958 -2.917400 -0.000000 -75.421000 3.851604 0.204327 1.629564 -0.333051 -0.017895 -2.895040 -7.286080 -0.064165 -0.114600 9.853939 -3.426271 -5.697491 -3.977245 -0.323839 0.497685 0.000000 0.000000 0.000000 -6.524795 9.421334 2.180840 -68.365361 15.570138 9.805659 -3.524804 -15.532996 -0.013785 -2.456118 9.327105 -0.196476 -0.067263 -0.059966 -0.000000 0.000000 0.000000 0.000000 0.000000 0.000000 0.000000 16.709977 1.489349 0.700866 56.538531 17.214346 11.386562 2.011765 45.937144 0.003137 -2.688797 7.090625 -0.175761 0.085339 -0.198940 -0.000000 0.000000 0.000000 0.000000 0.000000 0.000000 0.000000 
-1.510176 16.429508 -1.242390 -158.649609 68.316410 -153.870536 -10.648114 1.168465 0.672343 -23.381507 8.717603 -29.888097 -2.519078 -0.374659 17.801578 3.516852 14.478901 -20.011890 176.806000 0.000000 -12.896600 9.845227 -2.117821 -3.367870 -1.167636 -19.812778 -15.108017 -0.974127 -3.124412 56.136484 -2.114477 -7.434252 27.491634 -3.353200 -0.000000 -71.750000 3.617894 0.052473 1.222950 -0.377507 -0.176310 -2.953852 -7.331147 -0.224497 -0.049465 9.965561 -3.605461 -5.828057 -3.996970 -0.324365 0.464479 0.000000 0.000000 0.000000 -6.547592 9.468222 2.136416 -67.613603 14.950897 10.685424 -3.529499 -16.730297 -0.014114 -2.724761 9.201152 -0.215351 -0.069116 -0.058889 -0.000000 0.000000 0.000000 0.000000 0.000000 0.000000 0.000000 16.955280 1.200899 0.727957 56.674809 16.362803 11.276543 2.099553 44.952447 0.004471 -2.513489 7.230157 -0.167659 0.086539 -0.190500 -0.000000 0.000000 0.000000 0.000000 0.000000 0.000000 0.000000 
-1.337445 16.415054 -1.335692 -160.196491 67.161760 -154.901264 -10.548621 1.235557 0.852824 -23.640612 7.448202 -29.744245 -2.498735 -0.302310 18.833729 3.537088 14.398127 -20.323950 176.732300 0.000000 -13.942000 9.944913 -1.955926 -3.109945 -0.792411 -18.413440 -17.410868 -1.101283 -3.244016 58.891202 -2.199161 -8.130769 26.893521 -3.665800 0.000000 -68.742600 3.373732 -0.110896 0.792791 -0.422094 -0.346850 -3.014827 -7.368746 -0.397387 0.017193 10.041373 -3.793764 -5.975432 -4.013892 -0.324490 0.426489 0.000000 0.000000 0.000000 -6.594425 9.483009 2.103251 -66.844484 14.133402 11.466051 -3.528218 -17.891934 -0.014043 -2.827499 8.977889 -0.218018 -0.070819 -0.056642 -0.000000 0.000000 0.000000 0.000000 0.000000 0.000000 0.000000 17.147529 0.892307 0.754866 56.892054 15.485685 11.030792 2.190070 43.859427 0.005634 -2.409438 7.382132 -0.164159 0.088473 -0.182326 -0.000000 0.000000 0.000000 0.000000 0.000000 0.000000 0.000000 
-1.171145 16.405369 -1.428420 -161.725426 65.912905 -155.840765 -10.455644 1.272946 1.055824 -23.849028 5.952727 -29.528779 -2.464635 -0.244223 19.750249 3.571562 14.370609 -20.674364 176.639500 -0.000000 -14.665400 10.018333 -1.787389 -2.846090 -0.404538 -16.843907 -19.708109 -1.231181 -3.365002 61.317069 -2.240882 -8.673912 25.674233 -3.833600 0.000001 -66.392000 3.139198 -0.277565 0.367883 -0.463185 -0.520837 -3.073314 -7.398071 -0.573976 0.082174 10.075110 -3.986423 -6.132153 -4.027390 -0.324193 0.385431 0.000000 0.000000 0.000000 -6.656821 9.452587 2.081629 -66.092108 13.122174 12.107896 -3.520120 -18.998016 -0.013542 -2.733552 8.662151 -0.202973 -0.072292 -0.053193 -0.000000 0.000000 0.000000 0.000000 0.000000 0.000000 0.000000 17.276314 0.568533 0.782823 57.185067 14.576001 10.634301 2.283053 42.656375 0.006630 -2.376936 7.532334 -0.165261 0.091051 -0.174332 -0.000000 0.000000 0.000000 0.000000 0.000000 0.000000 0.000000 
-1.011225 16.400786 -1.521361 -163.177449 64.581727 -156.669281 -10.377999 1.278551 1.263624 -23.986419 4.313882 -29.181448 -2.418650 -0.202796 20.498392 3.610698 14.377032 -21.022519 176.540401 0.000000 -15.047000 10.063397 -1.612806 -2.580656 -0.045067 -15.120108 -21.929075 -1.360736 -3.481263 63.373303 -2.244837 -9.067896 23.900521 -3.856500 0.000000 -64.509900 2.932380 -0.439184 -0.027374 -0.497872 -0.689720 -3.126072 -7.420378 -0.745519 0.140140 10.065621 -4.192843 -6.288466 -4.037896 -0.323590 0.343830 0.000000 0.000000 0.000000 -6.733413 9.337204 2.068751 -65.383766 11.974284 12.556173 -3.504095 -20.072066 -0.012645 -2.430784 8.265717 -0.171421 -0.073409 -0.048764 -0.000000 0.000000 0.000000 0.000000 0.000000 0.000000 0.000000 17.344557 0.218079 0.816753 57.538511 13.647845 10.105129 2.380036 41.329953 0.007480 -2.414165 7.663724 -0.170767 0.094287 -0.166361 0.000000 0.000000 0.000000 0.000000 0.000000 0.000000 0.000000 
-0.857594 16.401365 -1.615336 -164.501104 63.184278 -157.381677 -10.324378 1.252631 1.452415 -24.041065 2.643646 -28.647564 -2.365869 -0.179578 21.032578 3.641485 14.376879 -21.337854 176.449200 0.000000 -15.130200 10.077059 -1.434429 -2.317768 0.254635 -13.261075 -24.001139 -1.481352 -3.585975 65.018790 -2.219741 -9.345135 21.686983 -3.761000 -0.000000 -63.072000 2.772236 -0.589523 -0.363895 -0.522565 -0.847136 -3.167158 -7.434425 -0.905315 0.194959 10.010455 -4.358287 -6.437509 -4.044631 -0.322560 0.302896 0.000000 0.000000 0.000000 -6.803099 9.224931 2.066899 -64.741955 10.598940 12.914644 -3.479975 -21.046407 -0.011418 -1.921376 7.785506 -0.126463 -0.074261 -0.043031 -0.000000 0.000000 0.000000 0.000000 0.000000 0.000000 0.000000 17.337384 -0.096892 0.847796 57.956114 12.635784 9.367637 2.477651 39.915927 0.008195 -2.469970 7.753801 -0.176581 0.097336 -0.158303 0.000000 0.000000 0.000000 0.000000 0.000000 0.000000 0.000000 
-0.709074 16.407198 -1.711121 -165.677019 61.736099 -157.980653 -10.296728 1.201361 1.613141 -24.019381 1.024140 -27.906655 -2.311321 -0.176816 21.313826 3.655302 14.341571 -21.586987 176.380300 0.000001 -14.934900 10.059096 -1.256267 -2.053046 0.476189 -11.294632 -25.901221 -1.582103 -3.674019 66.239531 -2.174315 -9.535795 19.150268 -3.576100 0.000000 -61.678000 2.668338 -0.722063 -0.642772 -0.536478 -0.987381 -3.199045 -7.445189 -1.047586 0.236988 9.921131 -4.549182 -6.568765 -4.049967 -0.321521 0.266164 0.000000 0.000000 0.000000 -6.885746 8.987214 2.065136 -64.172239 9.202912 13.053615 -3.445673 -22.061012 -0.010013 -1.235100 7.247706 -0.073802 -0.074637 -0.036897 -0.000000 0.000000 0.000000 0.000000 0.000000 0.000000 0.000000 17.290823 -0.451760 0.891713 58.396354 11.629853 8.544381 2.582857 38.363198 0.008811 -2.556435 7.783132 -0.183301 0.100815 -0.149895 0.000000 0.000000 0.000000 0.000000 0.000000 0.000000 0.000000 
-0.564885 16.417829 -1.809551 -166.680703 60.252963 -158.465134 -10.298568 1.131605 1.733563 -23.928802 -0.451684 -26.954881 -2.260778 -0.194492 21.326177 3.642409 14.229140 -21.752805 176.346700 0.000000 -14.525200 10.007463 -1.082067 -1.782611 0.617441 -9.247386 -27.613956 -1.652965 -3.739920 67.025034 -2.122171 -9.693033 16.467729 -3.347200 0.000000 -60.329000 2.631977 -0.835179 -0.861885 -0.537336 -1.109696 -3.220458 -7.452422 -1.171423 0.272526 9.801599 -4.695574 -6.675974 -4.053671 -0.320430 0.234986 0.000000 0.000000 0.000000 -6.962818 8.741688 2.065315 -63.680119 7.690178 13.120202 -3.402727 -23.058397 -0.008563 -0.407362 6.649049 -0.019240 -0.074859 -0.030025 -0.000000 0.000000 0.000000 0.000000 0.000000 0.000000 0.000000 17.196689 -0.766536 0.936385 58.865150 10.547852 7.548878 2.692216 36.722915 0.009336 -2.599431 7.726980 -0.185030 0.103748 -0.141059 0.000000 0.000000 0.000000 0.000000 0.000000 0.000000 0.000000 
-0.423621 16.432769 -1.911228 -167.511550 58.745361 -158.838144 -10.329531 1.052509 1.812836 -23.779899 -1.722477 -25.818194 -2.218683 -0.232074 21.072048 3.597162 14.006906 -21.826755 176.357700 -0.000001 -13.989000 9.922629 -0.915437 -1.498749 0.686244 -7.152572 -29.161181 -1.688066 -3.780625 67.388429 -2.075941 -9.859352 13.802913 -3.109601 0.000000 -58.836900 2.667632 -0.927552 -1.038612 -0.524746 -1.214057 -3.235118 -7.459198 -1.276768 0.300831 9.665038 -4.823071 -6.755137 -4.056993 -0.319520 0.211036 0.000000 0.000000 0.000000 -7.040803 8.456273 2.060417 -63.258847 6.158557 13.110248 -3.350698 -24.116071 -0.007214 0.507448 6.009384 0.030921 -0.075027 -0.022857 -0.000000 0.000000 0.000000 0.000000 0.000000 0.000000 0.000000 17.080190 -1.068133 0.986316 59.336510 9.426088 6.438626 2.809419 34.986941 0.009778 -2.577611 7.565172 -0.179665 0.106282 -0.131664 0.000000 0.000000 0.000000 0.000000 0.000000 0.000000 0.000000 
